# xmcd
# 
# Track frame offsets:
#     150
#     30265
#     44227
#     50600
#     63857
#     86090
#     108945
#     127762
#     143192
#     149887
#     153960
#     175525
#     183887
#     194635
#     198420
#     228747
# 
# Disc length: 3310
# 
# Revision: 11
# Processed by: cddbd v1.5.2PL0 Copyright (c) Steve Scherf et al.
# Submitted via: BonkEnc v1.0
# 
DISCID=e40cec10
DTITLE=Various Artist - Bram Stoker's Dracula Original Motion Picture Soundtrack
DYEAR=1992
DGENRE=Soundtrack Movie
TTITLE0=Wojciech Kilar  - Dracula - The Beginning
TTITLE1=Wojciech Kilar  - Vampire Hunters
TTITLE2=Wojciech Kilar  - Mina's Photo
TTITLE3=Wojciech Kilar  - Lucy's Party
TTITLE4=Wojciech Kilar  - The Brides
TTITLE5=Wojciech Kilar  - The Storm
TTITLE6=Wojciech Kilar  - Love Remembered
TTITLE7=Wojciech Kilar  - The Hunt Builds
TTITLE8=Wojciech Kilar  - The Hunters Prelude
TTITLE9=Wojciech Kilar  - The Green Mist
TTITLE10=Wojciech Kilar  - Mina - Dracula
TTITLE11=Wojciech Kilar  - The Ring of Fire
TTITLE12=Wojciech Kilar  - Love Eternal
TTITLE13=Wojciech Kilar  - Ascension
TTITLE14=Wojciech Kilar  - End Credits
TTITLE15=Annie Lennox - Love Song for a Vampire (From 'BRAM STOKER'S DRACULA')
EXTD=YEAR: 1992
EXTT0=
EXTT1=
EXTT2=
EXTT3=
EXTT4=
EXTT5=
EXTT6=
EXTT7=
EXTT8=
EXTT9=
EXTT10=
EXTT11=
EXTT12=
EXTT13=
EXTT14=
EXTT15=
PLAYORDER=
